<?xml version="1.0" encoding="UTF-8"?>
<svg xmlns="http://www.w3.org/2000/svg" version="1.1" viewBox="0 0 165.1 28">
  <defs>
    <style>
      .cls-1 {
        fill: #2d2d2d;
      }
    </style>
  </defs>
  <!-- Generator: Adobe Illustrator 28.7.1, SVG Export Plug-In . SVG Version: 1.2.0 Build 142)  -->
  <g>
    <g id="Layer_1">
      <g>
        <g>
          <polygon class="cls-1" points="44.8 9.2 32.4 9.2 32.4 5.5 36.3 5.5 36.3 3.5 40.9 3.5 40.9 5.5 44.8 5.5 44.8 9.2"/>
          <path class="cls-1" d="M38.7,9.9c-3.4,0-5.8,2.1-5.8,5v2.8c0,3,2.4,5,5.8,5s5.8-2.1,5.8-5v-2.8c0-3-2.4-5-5.8-5ZM39.1,19.1h-.9v-5.8h.9v5.8Z"/>
          <polygon class="cls-1" points="51.4 22.4 51.4 14.6 53.5 14.6 53.5 10.4 51.4 10.4 51.4 3.8 46.8 3.8 46.8 22.4 51.4 22.4"/>
          <path class="cls-1" d="M63.5,18.6v-2.9c2.3-.7,3.8-2.3,3.8-4.5v-2.6c0-2.8-2.6-4.8-6.4-4.8s-6.4,2-6.4,4.8v2.6c0,2.2,1.5,3.8,3.9,4.5v2.9h-4.2v3.7h13.8v-3.7h-4.4ZM58,11.4v-.9l5.7-2.1v.9l-5.7,2.1Z"/>
          <polygon class="cls-1" points="69 3.8 73.6 3.8 73.6 10.7 75.6 10.7 75.6 14.6 73.6 14.6 73.6 22.4 69 22.4 69 3.8"/>
          <rect class="cls-1" x="91.8" y="3.8" width="4.6" height="18.6"/>
          <rect class="cls-1" x="99.1" y="11.5" width="19.6" height="3"/>
          <polygon class="cls-1" points="118 20.2 118 23.2 99.8 23.2 99.8 20 115.6 18.1 99.8 18.1 99.8 15.3 117.9 15.3 117.9 18.5 103.4 20.2 118 20.2"/>
          <polygon class="cls-1" points="99.8 3.8 117.7 3.8 117.7 11 113.1 11 113.1 10.3 100 10.3 100 7.5 113.1 7.5 113.1 6.7 99.8 6.7 99.8 3.8"/>
          <polygon class="cls-1" points="121.1 11.4 125.5 11.4 125.5 8.1 121.1 8.1 121.1 4.4 129.6 4.4 129.6 15 125.5 15 125.5 18.7 130.2 18.7 130.2 22.4 121.1 22.4 121.1 11.4"/>
          <polygon class="cls-1" points="135.3 14.4 135.3 22.4 131.2 22.4 131.2 3.8 135.3 3.8 135.3 10.2 136.7 10.2 136.7 3.8 140.8 3.8 140.8 22.4 136.7 22.4 136.7 14.4 135.3 14.4"/>
          <polygon class="cls-1" points="146.9 4.2 151.3 4.2 147.5 15.2 142.8 15.2 146.9 4.2"/>
          <rect class="cls-1" x="143.4" y="18.7" width="19.6" height="3.7"/>
          <polygon class="cls-1" points="157.2 4.2 156.2 7.1 159.7 7.1 163.1 15.2 158.2 15.2 155.7 8.7 153.5 15.2 148.6 15.2 152.5 4.2 157.2 4.2"/>
          <path class="cls-1" d="M83.3,4c-3.7,0-6,2.2-6,5.3v8c0,2.8,2.1,4.7,4.9,5.1,1.4.2,2.8,0,4.1-.6,2-.9,3-2.4,3-4.6v-8c0-3.1-2.3-5.3-6-5.3ZM85.2,19.2c-1,1-2.5,1-3.5,0-1-1-1-2.5,0-3.5s.8-.6,1.2-.7v-3.3c-1.1-.3-1.9-1.2-1.9-2.4s1.1-2.5,2.5-2.5,2.5,1.1,2.5,2.5-.8,2.2-1.9,2.4v3.3c.4,0,.9.3,1.2.7,1,1,1,2.5,0,3.5Z"/>
        </g>
        <path class="cls-1" d="M25.9,12.6c-.5,0-.9.4-.9.9v6l-10.6,5.8v-9.9l12-6.5c.3-.2.5-.5.5-.8,0-.3-.2-.6-.5-.8L13.9.5c-.3-.1-.6-.1-.9,0L.6,7.2s0,0,0,0c0,0,0,0,0,0,0,0,0,0,0,0,0,0-.1,0-.2.2,0,0,0,0,0,0,0,0,0,0,0,0,0,0,0,0,0,0,0,0,0,0,0,0,0,0,0,0,0,0,0,0,0,0,0,0,0,0,0,0,0,.1,0,0,0,0,0,0,0,0,0,0,0,0,0,0,0,0,0,0,0,0,0,0,0,.1,0,0,0,0,0,0v12.1c0,.3.2.6.5.8l8.2,4.6c.4.2,1,0,1.2-.3.2-.4,0-1-.3-1.2l-7.7-4.3v-10l6.9,3.7c.1,0,.3.1.4.1.3,0,.6-.2.8-.5.2-.4,0-1-.4-1.2l-6.7-3.7L13.5,2.3l10.5,5.7-11,6c-.3.2-.5.5-.5.8v12c0,.3.2.6.4.8.1,0,.3.1.5.1s.3,0,.4-.1l12.4-6.8c.3-.2.5-.5.5-.8v-6.5c0-.5-.4-.9-.9-.9Z"/>
      </g>
    </g>
  </g>
</svg>