<?xml version="1.0" encoding="UTF-8"?>
<svg id="Layer_1" xmlns="http://www.w3.org/2000/svg" viewBox="0 0 165.15 26.41">
  <defs>
    <style>
      .cls-1 {
        fill: #2d2d2d;
      }
    </style>
  </defs>
  <path class="cls-1" d="M25.96,12.34c-.48,0-.87.39-.87.87v6.08l-9.73,4.85v-10.03l10.98-5.66c.29-.15.47-.44.47-.76,0-.32-.17-.62-.45-.77L13.91.11c-.26-.14-.58-.14-.84,0L.45,7.06c-.28.15-.45.44-.45.76v11.99c0,.31.17.6.44.76l8.85,5.02c.42.24.95.09,1.18-.33.24-.42.09-.95-.33-1.18L1.74,19.31v-10.24l7.71,4.39c.14.08.28.11.43.11.3,0,.6-.16.76-.44.24-.42.09-.95-.33-1.19L2.87,7.71,13.49,1.86l10.6,5.8-10,5.15c-.29.15-.47.45-.47.77v11.96c0,.3.16.58.41.74.14.09.3.13.46.13.13,0,.27-.03.39-.09l11.47-5.72c.29-.15.48-.45.48-.78v-6.62c0-.48-.39-.87-.87-.87Z"/>
  <g>
    <polygon class="cls-1" points="45.15 8.94 32.6 8.94 32.6 5.16 36.55 5.16 36.55 3.17 41.21 3.17 41.21 5.16 45.15 5.16 45.15 8.94"/>
    <path class="cls-1" d="M38.94,9.63c-3.43,0-5.91,2.1-5.91,5.11v2.81c0,3,2.48,5.11,5.91,5.11s5.91-2.1,5.91-5.11v-2.81c0-3-2.48-5.11-5.91-5.11ZM39.36,19.03h-.95v-5.89h.95v5.89Z"/>
    <polygon class="cls-1" points="51.84 22.37 51.84 14.4 53.95 14.4 53.95 10.19 51.84 10.19 51.84 3.5 47.19 3.5 47.19 22.37 51.84 22.37"/>
    <path class="cls-1" d="M64.11,18.44v-2.93c2.36-.69,3.83-2.32,3.83-4.51v-2.67c0-2.81-2.6-4.87-6.48-4.87s-6.5,1.99-6.5,4.87v2.67c0,2.25,1.49,3.88,3.92,4.54v2.91h-4.3v3.74h13.99v-3.74h-4.47ZM58.54,11.21v-.95l5.81-2.08v.95l-5.81,2.08Z"/>
    <polygon class="cls-1" points="69.65 3.5 74.3 3.5 74.3 10.43 76.41 10.43 76.41 14.4 74.3 14.4 74.3 22.37 69.65 22.37 69.65 3.5"/>
    <rect class="cls-1" x="92.81" y="3.5" width="4.68" height="18.86"/>
    <rect class="cls-1" x="100.16" y="11.3" width="19.85" height="3"/>
    <polygon class="cls-1" points="119.38 20.1 119.38 23.17 100.92 23.17 100.92 19.88 116.92 17.99 100.92 17.99 100.92 15.16 119.22 15.16 119.22 18.37 104.58 20.1 119.38 20.1"/>
    <polygon class="cls-1" points="100.94 3.5 119.07 3.5 119.07 10.83 114.42 10.83 114.42 10.08 101.13 10.08 101.13 7.26 114.42 7.26 114.42 6.39 100.94 6.39 100.94 3.5"/>
    <polygon class="cls-1" points="122.48 11.16 126.99 11.16 126.99 7.85 122.48 7.85 122.48 4.12 131.15 4.12 131.15 14.87 126.97 14.87 126.97 18.58 131.77 18.58 131.77 22.3 122.48 22.3 122.48 11.16"/>
    <polygon class="cls-1" points="136.92 14.21 136.92 22.37 132.79 22.37 132.79 3.5 136.92 3.5 136.92 10 138.34 10 138.34 3.5 142.5 3.5 142.5 22.37 138.34 22.37 138.34 14.21 136.92 14.21"/>
    <polygon class="cls-1" points="148.72 3.93 153.16 3.93 149.26 14.99 144.54 14.99 148.72 3.93"/>
    <rect class="cls-1" x="145.08" y="18.56" width="19.85" height="3.73"/>
    <polygon class="cls-1" points="159.07 3.93 158.1 6.81 161.7 6.81 165.15 14.99 160.11 14.99 157.56 8.44 155.41 14.99 150.44 14.99 154.39 3.93 159.07 3.93"/>
    <path class="cls-1" d="M84.21,3.69c-3.76,0-6.12,2.22-6.12,5.34v8.13c0,2.84,2.13,4.8,4.99,5.2,1.44.21,2.84.02,4.18-.57,2.03-.87,3.05-2.41,3.05-4.63v-8.13c0-3.12-2.36-5.34-6.1-5.34ZM86.11,19.06c-.98.98-2.56.98-3.53,0-.98-.98-.98-2.56,0-3.53.34-.34.77-.56,1.21-.66v-3.32c-1.11-.25-1.94-1.24-1.94-2.43,0-1.38,1.12-2.5,2.5-2.5s2.5,1.12,2.5,2.5c0,1.2-.84,2.19-1.96,2.44v3.3c.45.1.88.32,1.23.67.98.98.98,2.56,0,3.53Z"/>
  </g>
</svg>