<?xml version="1.0" encoding="UTF-8"?>
<svg xmlns="http://www.w3.org/2000/svg" version="1.1" viewBox="0 0 20 20">
  <defs>
    <style>
      .cls-1 {
        fill: #232323;
      }
    </style>
  </defs>
  <!-- Generator: Adobe Illustrator 28.7.1, SVG Export Plug-In . SVG Version: 1.2.0 Build 142)  -->
  <g>
    <g id="Layer_1">
      <g id="Layer_1-2" data-name="Layer_1">
        <path class="cls-1" d="M14.9,2H5.2c-1.8,0-3.2,1.4-3.2,3.2v9.6c0,1.8,1.4,3.2,3.2,3.2h9.7c1.8,0,3.2-1.4,3.2-3.2V5.2c0-1.8-1.4-3.2-3.2-3.2ZM16,14.8c0,.7-.5,1.2-1.2,1.2H5.2c-.7,0-1.2-.5-1.2-1.2V5.2c0-.7.5-1.2,1.2-1.2h9.7c.7,0,1.2.5,1.2,1.2v9.6Z"/>
      </g>
      <g id="Layer_1-3" data-name="Layer_1">
        <g id="Layer_1-2">
          <g id="Layer_1-2-2" data-name="Layer_1-2">
            <g id="Layer_1-2-2">
              <ellipse class="cls-1" cx="10" cy="7.6" rx="2.4" ry="2.2"/>
              <path class="cls-1" d="M13.5,14.6v-.9c0-1.7-1.4-3.1-3.1-3.1h-.8c-1.7,0-3.1,1.4-3.1,3.1v.9h6.9Z"/>
            </g>
          </g>
        </g>
      </g>
    </g>
  </g>
</svg>