<?xml version="1.0" encoding="UTF-8"?>
<svg xmlns="http://www.w3.org/2000/svg" version="1.1" viewBox="0 0 30 30">
  <defs>
    <style>
      .cls-1 {
        fill: #232323;
      }
    </style>
  </defs>
  <!-- Generator: Adobe Illustrator 28.7.1, SVG Export Plug-In . SVG Version: 1.2.0 Build 142)  -->
  <g>
    <g id="Layer_1">
      <path class="cls-1" d="M15,3.3c1.1,0,2,.9,2,2v1.1c1.6.4,3,1.2,4.1,2.3l.9-.6c.3-.2.7-.3,1.1-.3.7,0,1.3.3,1.7.9.6.9.3,2.2-.6,2.8l-.9.6c.3.9.5,1.9.5,2.9s-.1,1.7-.4,2.6l.9.5c1,.6,1.3,1.8.7,2.8-.4.6-1.1,1-1.8,1s-.7,0-1-.3l-.9-.5c-1.2,1.2-2.7,2.1-4.4,2.6v1.1c0,1.1-.9,2-2,2s-2-.9-2-2v-1.1c-1.6-.4-3-1.2-4.1-2.3l-.9.6c-.3.2-.7.3-1.1.3-.7,0-1.3-.3-1.7-.9-.6-.9-.3-2.2.6-2.8l.9-.6c-.3-.9-.5-1.9-.5-2.9s.1-1.7.4-2.6l-.9-.5c-1-.6-1.3-1.8-.7-2.8.4-.6,1.1-1,1.8-1,.3,0,.7,0,1,.3l.9.5c1.2-1.2,2.7-2.1,4.4-2.6v-1.1c0-1.1.9-2,2-2M15,.3c-2.4,0-4.4,1.7-4.9,3.9-.7.3-1.4.7-2,1.1-.5-.2-1-.2-1.5-.2-1.8,0-3.5,1-4.4,2.5-.7,1.2-.8,2.5-.5,3.8.3.9.8,1.8,1.5,2.4,0,.4,0,.8,0,1.1,0,.6,0,1.1.1,1.7-1.6,1.6-2,4.2-.7,6.3.9,1.5,2.5,2.3,4.2,2.3s1.2-.1,1.7-.3c.5.3,1,.6,1.5.8.5,2.3,2.5,3.9,4.9,3.9s4.4-1.7,4.9-3.9c.7-.3,1.4-.7,2-1.1.5.2,1,.2,1.5.2,1.8,0,3.5-1,4.4-2.5.7-1.2.8-2.5.5-3.8-.3-.9-.8-1.8-1.5-2.4,0-.4,0-.8,0-1.1,0-.6,0-1.1-.1-1.7.7-.7,1.1-1.5,1.4-2.5.3-1.3,0-2.7-.7-3.8-.9-1.5-2.5-2.3-4.2-2.3s-1.2.1-1.7.3c-.5-.3-1-.6-1.5-.8-.5-2.3-2.5-3.9-4.9-3.9h0Z"/>
      <path class="cls-1" d="M15,12.4c1.4,0,2.6,1.2,2.6,2.6s-1.2,2.6-2.6,2.6-2.6-1.2-2.6-2.6,1.2-2.6,2.6-2.6M15,9.4c-3.1,0-5.6,2.5-5.6,5.6s2.5,5.6,5.6,5.6,5.6-2.5,5.6-5.6-2.5-5.6-5.6-5.6h0Z"/>
    </g>
  </g>
</svg>