<?xml version="1.0" encoding="UTF-8"?>
<svg id="_레이어_2" data-name="레이어_2" xmlns="http://www.w3.org/2000/svg" xmlns:xlink="http://www.w3.org/1999/xlink" viewBox="0 0 38 42">
  <defs>
    <style>
      .cls-1 {
        fill: #ffc61a;
        opacity: .2;
      }

      .cls-1, .cls-2, .cls-3 {
        isolation: isolate;
      }

      .cls-1, .cls-2, .cls-3, .cls-4 {
        fill-rule: evenodd;
      }

      .cls-2, .cls-3 {
        opacity: .3;
      }

      .cls-2, .cls-4 {
        fill: #ff7f00;
      }

      .cls-3 {
        fill: #ffcc1a;
      }

      .cls-5 {
        clip-rule: evenodd;
        fill: none;
      }

      .cls-6 {
        clip-path: url(#clippath);
      }
    </style>
    <clipPath id="clippath">
      <path class="cls-5" d="M21.59,41.33c-1.57.9-3.5.9-5.07,0l-13.96-8.03C1,32.4.04,30.75.04,28.97L0,12.97c0-1.8.96-3.46,2.53-4.36L16.41.67c1.57-.9,3.5-.9,5.07,0l13.96,8.03c1.56.89,2.52,2.54,2.52,4.33l.04,16c0,1.8-.96,3.46-2.53,4.35l-13.88,7.94Z"/>
    </clipPath>
  </defs>
  <g id="_레이어_1-2" data-name="레이어_1">
    <g class="cls-6">
      <path class="cls-4" d="M21.59,41.33c-1.57.9-3.5.9-5.07,0l-13.96-8.03C1,32.4.04,30.75.04,28.97L0,12.97c0-1.8.96-3.46,2.53-4.36L16.41.67c1.57-.9,3.5-.9,5.07,0l13.96,8.03c1.56.89,2.52,2.54,2.52,4.33l.04,16c0,1.8-.96,3.46-2.53,4.35l-13.88,7.94Z"/>
      <path class="cls-2" d="M31.41-17.31l13.63,23.4L-13.01,39.3l-13.63-23.4L31.41-17.31Z"/>
      <path class="cls-1" d="M19.75-8.05l-1.72,55.59,29.25-12.84-.27-29.74-27.25-13.01Z"/>
      <path class="cls-3" d="M-2.13,7.95l43.23,24.67L44.61-1.89l-24-9.67L-2.13,7.95Z"/>
    </g>
  </g>
</svg>