<?xml version="1.0" encoding="UTF-8"?>
<svg id="_레이어_2" data-name="레이어_2" xmlns="http://www.w3.org/2000/svg" xmlns:xlink="http://www.w3.org/1999/xlink" viewBox="0 0 38 42">
  <defs>
    <style>
      .cls-1 {
        fill: #b9f448;
      }

      .cls-1, .cls-2, .cls-3, .cls-4 {
        fill-rule: evenodd;
      }

      .cls-2 {
        fill: #abe044;
      }

      .cls-2, .cls-3, .cls-4 {
        isolation: isolate;
      }

      .cls-2, .cls-4 {
        opacity: .5;
      }

      .cls-3 {
        fill: #b6ef49;
        opacity: .4;
      }

      .cls-5 {
        clip-rule: evenodd;
        fill: none;
      }

      .cls-4 {
        fill: #87c83e;
      }

      .cls-6 {
        clip-path: url(#clippath);
      }
    </style>
    <clipPath id="clippath">
      <path class="cls-5" d="M21.59,41.33c-1.57.9-3.5.9-5.07,0l-13.96-8.03C1,32.4.04,30.75.04,28.97L0,12.97c0-1.8.96-3.46,2.53-4.36L16.41.67c1.57-.9,3.5-.9,5.07,0l13.96,8.03c1.56.89,2.52,2.54,2.52,4.33l.04,16c0,1.8-.96,3.46-2.53,4.35l-13.88,7.94Z"/>
    </clipPath>
  </defs>
  <g id="_레이어_1-2" data-name="레이어_1">
    <g class="cls-6">
      <path class="cls-1" d="M21.59,41.33c-1.57.9-3.5.9-5.07,0l-13.96-8.03C1,32.4.04,30.75.04,28.97L0,12.97c0-1.8.96-3.46,2.53-4.36L16.41.67c1.57-.9,3.5-.9,5.07,0l13.96,8.03c1.56.89,2.52,2.54,2.52,4.33l.04,16c0,1.8-.96,3.46-2.53,4.35l-13.88,7.94Z"/>
      <path class="cls-3" d="M31.41-17.31l13.63,23.4L-13.01,39.3l-13.63-23.4L31.41-17.31Z"/>
      <path class="cls-4" d="M19.29,47.34l.72-56.18L-8.33,4.9l.28,29.53,27.34,12.91Z"/>
      <path class="cls-2" d="M39.02,30.54L-4.62,6.59l-2.93,34.56,24.16,9.27,22.41-19.88Z"/>
    </g>
  </g>
</svg>