<?xml version="1.0" encoding="UTF-8"?>
<svg xmlns="http://www.w3.org/2000/svg" version="1.1" viewBox="0 0 15 15">
  <defs>
    <style>
      .cls-1 {
        fill: #fff;
      }

      .cls-2 {
        fill: #c1c1c1;
      }
    </style>
  </defs>
  <!-- Generator: Adobe Illustrator 28.7.1, SVG Export Plug-In . SVG Version: 1.2.0 Build 142)  -->
  <g>
    <g id="Layer_1">
      <g>
        <path class="cls-1" d="M4.3,1h6.4c1.8,0,3.3,1.5,3.3,3.3v6.4c0,1.8-1.5,3.3-3.3,3.3h-6.4c-1.8,0-3.3-1.5-3.3-3.3v-6.4c0-1.8,1.5-3.3,3.3-3.3Z"/>
        <path class="cls-2" d="M10.7,2c1.3,0,2.3,1,2.3,2.3v6.4c0,1.3-1,2.3-2.3,2.3h-6.4c-1.3,0-2.3-1-2.3-2.3v-6.4c0-1.3,1-2.3,2.3-2.3h6.4M10.7,0h-6.4C1.9,0,0,1.9,0,4.3v6.4c0,2.4,1.9,4.3,4.3,4.3h6.4c2.4,0,4.3-1.9,4.3-4.3v-6.4c0-2.4-1.9-4.3-4.3-4.3h0Z"/>
      </g>
    </g>
  </g>
</svg>