<?xml version="1.0" encoding="UTF-8"?>
<svg xmlns="http://www.w3.org/2000/svg" version="1.1" viewBox="0 0 25 28">
  <defs>
    <style>
      .cls-1 {
        fill: #0ad08d;
      }
    </style>
  </defs>
  <!-- Generator: Adobe Illustrator 28.7.1, SVG Export Plug-In . SVG Version: 1.2.0 Build 142)  -->
  <g>
    <g id="Layer_1">
      <path class="cls-1" d="M12.5,2.1c.13,0,.33.03.52.17l9.6,7.19c.22.16.35.43.35.7v14.97c0,.48-.39.87-.87.87h-3.21c-.3,0-.54-.24-.54-.54v-2.5c0-1.58-1.29-2.87-2.87-2.87h-5.24c-1.58,0-2.87,1.29-2.87,2.87v2.51c0,.29-.24.53-.53.53h-3.94c-.48,0-.87-.39-.87-.87v-14.97c0-.27.13-.54.35-.7L11.98,2.27c.19-.14.39-.17.52-.17M12.5.1c-.61,0-1.21.19-1.72.57L1.18,7.86C.45,8.4.03,9.25.03,10.16v14.97c0,1.59,1.29,2.87,2.87,2.87h3.94c1.4,0,2.53-1.13,2.53-2.53v-2.51c0-.48.39-.87.87-.87h5.24c.48,0,.87.39.87.87v2.5c0,1.4,1.14,2.54,2.54,2.54h3.21c1.59,0,2.87-1.29,2.87-2.87v-14.97c0-.91-.43-1.76-1.15-2.3L14.22.67c-.51-.38-1.12-.57-1.72-.57h0Z"/>
    </g>
  </g>
</svg>