<?xml version="1.0" encoding="UTF-8"?>
<svg xmlns="http://www.w3.org/2000/svg" version="1.1" viewBox="0 0 20 20">
  <defs>
    <style>
      .cls-1 {
        fill: none;
        stroke: #232323;
        stroke-linecap: round;
        stroke-linejoin: round;
        stroke-width: 2px;
      }

      .cls-2 {
        fill: #232323;
      }
    </style>
  </defs>
  <!-- Generator: Adobe Illustrator 28.7.1, SVG Export Plug-In . SVG Version: 1.2.0 Build 142)  -->
  <g>
    <g id="Layer_1">
      <polyline class="cls-1" points="6.2 12.8 6.2 17.4 10.8 12.8"/>
      <circle class="cls-2" cx="6.8" cy="8" r="1.1"/>
      <circle class="cls-2" cx="10.1" cy="8" r="1.1"/>
      <circle class="cls-2" cx="13.3" cy="8" r="1.1"/>
      <g id="Layer_1-2" data-name="Layer_1">
        <g id="Layer_1-2">
          <path class="cls-2" d="M2,10.6v-5.6c0-1.8,1.4-3.2,3.2-3.2h9.7c1.8,0,3.2,1.4,3.2,3.2v5.6c0,1.8-1.4,3.2-3.2,3.2h-3.8c-.6,0-1-.4-1-1s.4-1,1-1h3.8c.7,0,1.2-.5,1.2-1.2v-5.6c0-.7-.5-1.2-1.2-1.2H5.2c-.7,0-1.2.5-1.2,1.2v5.6c0,.7.5,1.2,1.2,1.2h.6c.6,0,1,.4,1,1s-.4,1-1,1h-.6c-1.8,0-3.2-1.4-3.2-3.2Z"/>
        </g>
      </g>
    </g>
  </g>
</svg>