<?xml version="1.0" encoding="UTF-8"?>
<svg xmlns="http://www.w3.org/2000/svg" version="1.1" viewBox="0 0 154 118">
  <defs>
    <style>
      .cls-1 {
        fill: #e0efb6;
      }

      .cls-2 {
        fill: #a7fcdd;
      }

      .cls-3 {
        fill: #fff;
      }

      .cls-4 {
        fill: #262626;
      }

      .cls-5 {
        fill: #e0e0e0;
      }

      .cls-6 {
        fill: #0ad08d;
      }
    </style>
  </defs>
  <!-- Generator: Adobe Illustrator 28.7.1, SVG Export Plug-In . SVG Version: 1.2.0 Build 142)  -->
  <g>
    <g id="Layer_1">
      <circle class="cls-2" cx="36.3" cy="35" r="32.8"/>
      <rect class="cls-3" x="35.1" y="30.4" width="83.6" height="52.8"/>
      <g>
        <path class="cls-6" d="M82,28.2h-10v10h10v-10h0ZM78.8,34.8h-3.4v-3.4h3.4v3.4ZM87,91.6v1.6h-20v-1.6h-3.2v2.7c0,1.4,1.4,2.3,2.8,2.3h21.7c1.4,0,2.1-.9,2.1-2.3v-2.7h-3.4Z"/>
        <path class="cls-5" d="M73.8,59.8h-26.8v-14.7c0-.9,1.2-1.9,2.1-1.9h23.3c.9,0,1.4,1,1.4,1.9v14.7h0ZM107,59.8h-26.6v-14.7c0-.9,1.1-1.9,2-1.9h23.3c.9,0,1.2,1,1.2,1.9v14.7Z"/>
        <path class="cls-6" d="M88.6,91.6v2.7c0,.5.2.4-.3.4h-21.7c-.5,0-1.2,0-1.2-.4v-2.7"/>
        <path class="cls-4" d="M25.2,94.7h13.4v3.4h-13.4v-3.4ZM115.4,94.7h13.3v3.4h-13.3v-3.4ZM122.1,91.6h-3.4v-54.8c0-2.8-1.8-5.4-4.6-5.4H40.8c-2.8,0-5.5,2.6-5.5,5.4v54.8h-3.2v-54.8c0-4.6,4.1-8.6,8.7-8.6h73.4c4.6,0,8,4,8,8.6v54.8h0Z"/>
        <path class="cls-4" d="M124.1,103.2H30.8c-3.7,0-7.1-2.7-7.1-6.4v-3.3c0-1.8,1.9-3.7,3.8-3.7h100c1.8,0,2.9,1.9,2.9,3.7v3.3c0,3.7-2.5,6.4-6.2,6.4h0ZM27.1,93.2v3.7c0,1.8,1.8,2.9,3.7,2.9h93.4c1.8,0,3-1.1,3-2.9v-3.7H27.1ZM115.4,86.6H38.7v-46.4c0-2.8,2.7-5.3,5.4-5.3h66.7c2.8,0,4.6,2.5,4.6,5.3v46.4ZM42.1,83.2h69.9v-43c0-.9-.3-1.9-1.2-1.9H44.1c-.9,0-2,1-2,1.9v43h0Z"/>
        <path class="cls-4" d="M47,63.1h26.8v3.3h-26.8v-3.3ZM52,69.9h16.8v3.3h-16.8v-3.3ZM80.4,63.1h26.6v3.3h-26.6v-3.3ZM85.4,69.9h16.6v3.3h-16.6v-3.3Z"/>
      </g>
      <circle class="cls-1" cx="141.1" cy="54" r="10.8"/>
    </g>
  </g>
</svg>