<?xml version="1.0" encoding="UTF-8"?>
<svg xmlns="http://www.w3.org/2000/svg" version="1.1" viewBox="0 0 30 30">
  <defs>
    <style>
      .cls-1 {
        stroke-linecap: round;
      }

      .cls-1, .cls-2 {
        fill: none;
        stroke: #232323;
        stroke-linejoin: round;
        stroke-width: 3px;
      }

      .cls-3 {
        fill: #232323;
      }
    </style>
  </defs>
  <!-- Generator: Adobe Illustrator 28.7.1, SVG Export Plug-In . SVG Version: 1.2.0 Build 142)  -->
  <g>
    <g id="Layer_1">
      <path class="cls-2" d="M18.5,1.9H5.5c-2,0-3.6,1.6-3.6,3.6v9.3c0,2,1.6,3.6,3.6,3.6h.8v5.6l5.6-5.6h6.5c2,0,3.6-1.6,3.6-3.6V5.5c0-2-1.6-3.6-3.6-3.6Z"/>
      <path class="cls-1" d="M25.8,6.2c2,0,2.9,1.6,2.9,3.6v9.3c0,2-1.6,3.6-3.6,3.6h-.8s0,5.6,0,5.6l-5.6-5.6h-5.5"/>
      <circle class="cls-3" cx="7.2" cy="10.3" r="1.9"/>
      <circle class="cls-3" cx="12" cy="10.3" r="1.9"/>
      <circle class="cls-3" cx="16.9" cy="10.3" r="1.9"/>
    </g>
  </g>
</svg>