<?xml version="1.0" encoding="UTF-8"?>
<svg id="_레이어_2" data-name="레이어_2" xmlns="http://www.w3.org/2000/svg" xmlns:xlink="http://www.w3.org/1999/xlink" viewBox="0 0 475.06 75.98">
  <defs>
    <style>
      .cls-1, .cls-2 {
        fill: #fff;
      }

      .cls-2 {
        opacity: .5;
      }

      .cls-3 {
        fill: #15cfa0;
      }

      .cls-4 {
        fill: url(#linear-gradient);
      }
    </style>
    <linearGradient id="linear-gradient" x1="93.79" y1="37.89" x2="475.06" y2="37.89" gradientUnits="userSpaceOnUse">
      <stop offset="0" stop-color="#09c7a0"/>
      <stop offset="1" stop-color="#3ac5ec"/>
    </linearGradient>
  </defs>
  <g id="Layer_1">
    <g>
      <path class="cls-3" d="M74.68,35.49c-1.38,0-2.5,1.12-2.5,2.5v17.5l-27.98,13.95v-28.85l31.59-16.27c.82-.42,1.34-1.27,1.35-2.19.01-.93-.49-1.78-1.3-2.22L40.01.31c-.75-.41-1.66-.41-2.41,0L1.29,20.32c-.8.44-1.29,1.28-1.29,2.19v34.48c0,.9.48,1.73,1.27,2.17l25.45,14.45c1.2.68,2.73.26,3.41-.94.68-1.2.26-2.73-.94-3.41l-24.18-13.74v-29.45l22.17,12.62c.39.22.82.33,1.23.33.87,0,1.71-.45,2.18-1.26.68-1.2.26-2.73-.94-3.41l-21.38-12.17L38.81,5.35l30.5,16.68-28.76,14.81c-.83.43-1.35,1.29-1.35,2.22v34.42c0,.87.45,1.67,1.18,2.13.4.25.86.37,1.32.37.38,0,.76-.09,1.12-.26l32.98-16.44c.85-.42,1.38-1.29,1.38-2.24v-19.05c0-1.38-1.12-2.5-2.5-2.5Z"/>
      <path class="cls-4" d="M129.89,25.72h-36.1v-10.88h11.35v-5.71h13.4v5.71h11.35v10.88ZM112.01,27.69c-9.86,0-17,6.05-17,14.69v8.09c0,8.64,7.14,14.69,17,14.69s17-6.05,17-14.69v-8.09c0-8.63-7.14-14.69-17-14.69ZM113.23,54.75h-2.72v-16.93h2.72v16.93ZM149.13,64.34v-22.91h6.05v-12.1h-6.05V10.08h-13.39v54.26h13.39ZM184.43,53.05v-8.43c6.8-1.97,11.02-6.66,11.02-12.99v-7.68c0-8.09-7.48-14.01-18.63-14.01s-18.7,5.71-18.7,14.01v7.68c0,6.46,4.28,11.15,11.29,13.05v8.36h-12.37v10.74h40.25v-10.74h-12.85ZM168.38,32.25v-2.72l16.73-5.98v2.72l-16.73,5.98ZM200.34,10.08h13.39v19.92h6.05v11.42h-6.05v22.91h-13.39V10.08ZM242.23,10.62c-10.81,0-17.61,6.39-17.61,15.37v23.39c0,8.16,6.12,13.8,14.35,14.96,4.15.61,8.16.07,12.03-1.63,5.85-2.52,8.77-6.94,8.77-13.33v-23.39c0-8.97-6.8-15.37-17.54-15.37ZM244.07,50.81h-3.06v-27.54h3.06v27.54ZM280.44,64.34h-13.46V10.08h13.46v54.26ZM288.13,32.52h57.11v8.63h-57.11v-8.63ZM343.41,57.81v8.84h-53.1v-9.45l46.03-5.44h-46.03v-8.16h52.63v9.25l-42.09,4.96h42.56ZM290.37,10.08h52.15v21.08h-13.39v-2.18h-38.21v-8.09h38.21v-2.52h-38.76v-8.29ZM352.32,32.11h12.99v-9.52h-12.99v-10.74h24.95v30.94h-12.03v10.67h13.8v10.68h-26.72v-32.03ZM393.87,40.88v23.46h-11.9V10.08h11.9v18.7h4.08V10.08h11.97v54.26h-11.97v-23.46h-4.08ZM427.8,11.3h12.78l-11.22,31.82h-13.6l12.03-31.82ZM417.33,53.39h57.11v10.74h-57.11v-10.74ZM457.58,11.3l-2.79,8.3h10.33l9.93,23.53h-14.48l-7.34-18.83-6.19,18.83h-14.28l11.35-31.82h13.46Z"/>
      <g>
        <circle class="cls-2" cx="242.54" cy="26.25" r="8.33"/>
        <circle class="cls-1" cx="242.54" cy="26.25" r="4.21"/>
        <circle class="cls-2" cx="242.54" cy="49.44" r="8.33"/>
        <circle class="cls-1" cx="242.54" cy="49.44" r="4.21"/>
        <rect class="cls-1" x="241" y="24.43" width="3.06" height="26.82"/>
      </g>
    </g>
  </g>
</svg>