<?xml version="1.0" encoding="UTF-8"?>
<svg xmlns="http://www.w3.org/2000/svg" version="1.1" viewBox="0 0 245 185">
  <defs>
    <style>
      .cls-1, .cls-2, .cls-3, .cls-4, .cls-5, .cls-6, .cls-7, .cls-8, .cls-9 {
        stroke: #272525;
      }

      .cls-1, .cls-3, .cls-4, .cls-5, .cls-6, .cls-8, .cls-9 {
        stroke-miterlimit: 10;
      }

      .cls-1, .cls-4, .cls-10, .cls-7 {
        fill: #fff;
      }

      .cls-1, .cls-9 {
        stroke-width: 2px;
      }

      .cls-11 {
        fill: #e0efb6;
      }

      .cls-2, .cls-3, .cls-6 {
        fill: none;
      }

      .cls-2, .cls-3, .cls-6, .cls-7, .cls-8 {
        stroke-width: 3px;
      }

      .cls-2, .cls-3, .cls-7 {
        stroke-linecap: round;
      }

      .cls-2, .cls-7 {
        stroke-linejoin: round;
      }

      .cls-12 {
        fill: #a7fcdd;
      }

      .cls-4, .cls-5 {
        stroke-width: 2.5px;
      }

      .cls-5, .cls-13, .cls-9 {
        fill: #0ad08d;
      }

      .cls-14 {
        fill: #262626;
      }

      .cls-15 {
        fill: #e0e0e0;
      }

      .cls-16 {
        fill: #daedb2;
        fill-rule: evenodd;
      }

      .cls-8 {
        fill: #3ebb87;
      }
    </style>
  </defs>
  <!-- Generator: Adobe Illustrator 28.7.1, SVG Export Plug-In . SVG Version: 1.2.0 Build 142)  -->
  <g>
    <g id="Layer_1">
      <g id="Layer_1-2" data-name="Layer_1">
        <circle class="cls-12" cx="88.8" cy="75.8" r="22.8"/>
        <rect class="cls-10" x="87.9" y="72.6" width="58" height="36.6"/>
        <g>
          <path class="cls-13" d="M120.5,71h-6.9v6.9h6.9v-6.9h0ZM118.3,75.6h-2.4v-2.4h2.4v2.4ZM123.9,115v1.1h-13.9v-1.1h-2.2v1.9c0,1,1,1.6,1.9,1.6h15.1c1,0,1.5-.6,1.5-1.6v-1.9h-2.4Z"/>
          <path class="cls-15" d="M114.8,93h-18.6v-10.2c0-.6.8-1.3,1.5-1.3h16.2c.6,0,1,.7,1,1.3v10.2h0ZM137.8,93h-18.5v-10.2c0-.6.8-1.3,1.4-1.3h16.2c.6,0,.8.7.8,1.3v10.2h0Z"/>
          <path class="cls-13" d="M125.1,115v1.9c0,.3.1.3-.2.3h-15.1c-.3,0-.8,0-.8-.3v-1.9"/>
          <path class="cls-14" d="M81.1,117.2h9.3v2.4h-9.3s0-2.4,0-2.4ZM143.7,117.2h9.2v2.4h-9.2s0-2.4,0-2.4ZM148.3,115h-2.4v-38c0-1.9-1.2-3.7-3.2-3.7h-50.9c-1.9,0-3.8,1.8-3.8,3.7v38h-2.2v-38c0-3.2,2.8-6,6-6h50.9c3.2,0,5.6,2.8,5.6,6v38h0Z"/>
          <path class="cls-14" d="M149.7,123.1h-64.7c-2.6,0-4.9-1.9-4.9-4.4v-2.3c0-1.2,1.3-2.6,2.6-2.6h69.4c1.2,0,2,1.3,2,2.6v2.3c0,2.6-1.7,4.4-4.3,4.4h0ZM82.4,116.2v2.6c0,1.2,1.2,2,2.6,2h64.8c1.2,0,2.1-.8,2.1-2v-2.6h-69.5ZM143.7,111.6h-53.2v-32.2c0-1.9,1.9-3.7,3.7-3.7h46.3c1.9,0,3.2,1.7,3.2,3.7v32.2ZM92.8,109.2h48.5v-29.8c0-.6-.2-1.3-.8-1.3h-46.3c-.6,0-1.4.7-1.4,1.3v29.8h0Z"/>
          <path class="cls-14" d="M96.2,95.3h18.6v2.3h-18.6s0-2.3,0-2.3ZM99.7,100h11.7v2.3h-11.7s0-2.3,0-2.3ZM119.4,95.3h18.5v2.3h-18.5v-2.3ZM122.8,100h11.5v2.3h-11.5v-2.3Z"/>
        </g>
        <circle class="cls-11" cx="161.5" cy="88.9" r="7.5"/>
      </g>
      <path class="cls-16" d="M96.2,1.4c50.3,0,91.1,40.8,91.1,91.1s-40.8,91.1-91.1,91.1S5.1,142.8,5.1,92.5,45.9,1.4,96.2,1.4Z"/>
      <g>
        <g>
          <path class="cls-8" d="M215.8,136.1c0,4.3-3.5,7.8-7.8,7.8H74c-4.3,0-7.8-3.5-7.8-7.8V51.1c0-4.3,3.5-7.8,7.8-7.8h133.9c4.3,0,7.8,3.5,7.8,7.8v85Z"/>
          <rect class="cls-7" x="75.1" y="52.3" width="131.9" height="82.4"/>
          <rect class="cls-8" x="126.8" y="143.9" width="28.3" height="21.2"/>
          <path class="cls-8" d="M164.4,165.1h-46.9s-6.1,0-6.7,6.8h60.4c-.6-6.8-6.7-6.8-6.7-6.8Z"/>
        </g>
        <polyline class="cls-3" points="84.3 85.5 84.3 126.3 120.5 126.3"/>
        <path class="cls-6" d="M166.7,93.9c0-.8,0-1.5-.1-2.3l5.2-1.4-2.3-8.8-5.3,1.4c-1.1-2.3-2.6-4.4-4.3-6.3l3.4-4.4-7.2-5.6-3.4,4.4c-2.2-1.1-4.6-1.9-7.1-2.4v-5.6h-9.1v5.6c-2.4.4-4.7,1.2-6.8,2.2l-3.4-4.5-7.3,5.5,3.3,4.4c-1.3,1.3-2.4,2.8-3.3,4.4l-5.1-1.9-3.2,8.6,5,1.9c-.3,1.5-.4,3.1-.4,4.8s0,1.1,0,1.7l-5.1,1.3,2.3,8.8,5-1.3c1.1,2.4,2.5,4.6,4.3,6.6l-3.1,4,7.2,5.6,3.1-4c2.3,1.2,4.8,2.1,7.5,2.6v5h9.1v-5c2.5-.5,4.9-1.3,7.1-2.4l3,4,7.3-5.5-3-4.1c1.3-1.4,2.4-3,3.4-4.6l4.8,1.8,3.2-8.6-4.9-1.8c.2-1.4.3-2.7.3-4.2ZM141,111.1c-9.7,0-17.5-7.9-17.5-17.5s7.9-17.5,17.5-17.5,17.5,7.9,17.5,17.5-7.9,17.5-17.5,17.5Z"/>
      </g>
      <circle class="cls-4" cx="16.2" cy="52.3" r="11.1"/>
      <circle class="cls-1" cx="48.8" cy="127.8" r="4.2"/>
      <circle class="cls-9" cx="209" cy="24.8" r="4.1"/>
      <circle class="cls-5" cx="233.2" cy="97.2" r="6.7"/>
      <line class="cls-2" x1="100" y1="179.1" x2="201.2" y2="179.1"/>
      <line class="cls-2" x1="207.1" y1="179.1" x2="212.3" y2="179.1"/>
      <line class="cls-2" x1="218" y1="179.1" x2="239.2" y2="179.1"/>
    </g>
  </g>
</svg>