<?xml version="1.0" encoding="UTF-8"?>
<svg xmlns="http://www.w3.org/2000/svg" version="1.1" xmlns:xlink="http://www.w3.org/1999/xlink" viewBox="0 0 203 35">
  <defs>
    <style>
      .cls-1 {
        fill: #15cfa0;
      }

      .cls-2 {
        fill: url(#linear-gradient);
      }
    </style>
    <linearGradient id="linear-gradient" x1="40.1" y1="16.6" x2="201.8" y2="16.6" gradientUnits="userSpaceOnUse">
      <stop offset="0" stop-color="#09c7a0"/>
      <stop offset="1" stop-color="#3ac5ec"/>
    </linearGradient>
  </defs>
  <!-- Generator: Adobe Illustrator 28.7.1, SVG Export Plug-In . SVG Version: 1.2.0 Build 142)  -->
  <g>
    <g id="Layer_1">
      <g>
        <path class="cls-2" d="M55.4,11.5h-15.3v-4.6h4.8v-2.4h5.7v2.4h4.8v4.6ZM47.8,12.3c-4.2,0-7.2,2.6-7.2,6.2v3.4c0,3.7,3,6.2,7.2,6.2s7.2-2.6,7.2-6.2v-3.4c0-3.7-3-6.2-7.2-6.2ZM48.4,23.8h-1.2v-7.2h1.2v7.2ZM63.6,27.9v-9.7h2.6v-5.1h-2.6V4.9h-5.7v23h5.7ZM78.6,23.1v-3.6c2.9-.8,4.7-2.8,4.7-5.5v-3.3c0-3.4-3.2-5.9-7.9-5.9s-7.9,2.4-7.9,5.9v3.3c0,2.7,1.8,4.7,4.8,5.5v3.5h-5.2v4.6h17.1v-4.6h-5.4ZM71.8,14.2v-1.2l7.1-2.5v1.2l-7.1,2.5ZM85.3,4.9h5.7v8.4h2.6v4.8h-2.6v9.7h-5.7V4.9ZM119.3,27.9h-5.7V4.9h5.7v23ZM122.5,14.4h24.2v3.7h-24.2v-3.7ZM146,25.1v3.7h-22.5v-4l19.5-2.3h-19.5v-3.5h22.3v3.9l-17.8,2.1h18ZM123.5,4.9h22.1v8.9h-5.7v-.9h-16.2v-3.4h16.2v-1.1h-16.4v-3.5ZM149.7,14.2h5.5v-4h-5.5v-4.6h10.6v13.1h-5.1v4.5h5.9v4.5h-11.3v-13.6ZM167.4,17.9v9.9h-5V4.9h5v7.9h1.7v-7.9h5.1v23h-5.1v-9.9h-1.7ZM181.7,5.4h5.4l-4.8,13.5h-5.8l5.1-13.5ZM177.3,23.2h24.2v4.6h-24.2v-4.6ZM194.4,5.4l-1.2,3.5h4.4l4.2,10h-6.1l-3.1-8-2.6,8h-6.1l4.8-13.5h5.7ZM103.1,5.1c-4.6,0-7.5,2.7-7.5,6.5v9.9c0,3.5,2.6,5.9,6.1,6.3,1.8.3,3.5,0,5.1-.7,2.5-1.1,3.7-2.9,3.7-5.7v-9.9c0-3.8-2.9-6.5-7.4-6.5ZM105.4,23.8c-1.2,1.2-3.1,1.2-4.3,0s-1.2-3.1,0-4.3c.4-.4.9-.7,1.5-.8v-4c-1.4-.3-2.4-1.5-2.4-3s1.4-3,3-3,3,1.4,3,3-1,2.7-2.4,3v4c.5.1,1.1.4,1.5.8,1.2,1.2,1.2,3.1,0,4.3Z"/>
        <path class="cls-1" d="M31.9,15.5c-.6,0-1.1.5-1.1,1.1v7.3l-13,7.1v-12.2l14.6-8c.4-.2.6-.6.6-1,0-.4-.2-.8-.6-1L17.2.7c-.3-.2-.7-.2-1,0L1,8.9s0,0,0,0c0,0,0,0,0,0,0,0,0,0,0,0,0,0-.1.1-.2.2,0,0,0,0,0,0,0,0,0,0,0,0,0,0,0,0,0,0,0,0,0,0,0,0,0,0,0,0,0,0,0,0,0,0,0,0,0,0,0,0,0,.1,0,0,0,0,0,0,0,0,0,0,0,.1,0,0,0,0,0,0,0,0,0,0,0,.1,0,0,0,0,0,0v14.7c0,.4.2.8.6,1l10,5.6c.5.3,1.2.1,1.5-.4.3-.5.1-1.2-.4-1.5l-9.4-5.3v-12.3l8.4,4.6c.2,0,.3.1.5.1.4,0,.8-.2,1-.6.3-.5,0-1.2-.4-1.5L3.8,9.9l12.9-7,12.9,7-13.4,7.3c-.4.2-.6.6-.6,1v14.7c0,.4.2.7.5.9.2.1.4.2.6.2s.4,0,.5-.1l15.2-8.3c.4-.2.6-.6.6-1v-8c0-.6-.5-1.1-1.1-1.1Z"/>
      </g>
    </g>
  </g>
</svg>