<?xml version="1.0" encoding="UTF-8"?>
<svg xmlns="http://www.w3.org/2000/svg" version="1.1" xmlns:xlink="http://www.w3.org/1999/xlink" viewBox="0 0 203 32.5">
  <defs>
    <style>
      .cls-1 {
        fill: #15cfa0;
      }

      .cls-2 {
        fill: url(#linear-gradient);
      }
    </style>
    <linearGradient id="linear-gradient" x1="38.5" y1="15.8" x2="193.6" y2="15.8" gradientUnits="userSpaceOnUse">
      <stop offset="0" stop-color="#09c7a0"/>
      <stop offset="1" stop-color="#3ac5ec"/>
    </linearGradient>
  </defs>
  <!-- Generator: Adobe Illustrator 28.7.1, SVG Export Plug-In . SVG Version: 1.2.0 Build 142)  -->
  <g>
    <g id="Layer_1">
      <g>
        <path class="cls-2" d="M53.2,10.9h-14.7v-4.4h4.6v-2.3h5.4v2.3h4.6v4.4ZM45.9,11.7c-4,0-6.9,2.5-6.9,6v3.3c0,3.5,2.9,6,6.9,6s6.9-2.5,6.9-6v-3.3c0-3.5-2.9-6-6.9-6ZM46.4,22.7h-1.1v-6.9h1.1v6.9ZM61,26.6v-9.3h2.5v-4.9h-2.5v-7.8h-5.4v22.1h5.4ZM75.4,22v-3.4c2.8-.8,4.5-2.7,4.5-5.3v-3.1c0-3.3-3-5.7-7.6-5.7s-7.6,2.3-7.6,5.7v3.1c0,2.6,1.7,4.5,4.6,5.3v3.4h-5v4.4h16.4v-4.4h-5.2ZM68.8,13.6v-1.1l6.8-2.4v1.1l-6.8,2.4ZM81.8,4.5h5.4v8.1h2.5v4.6h-2.5v9.3h-5.4V4.5ZM114.4,26.6h-5.5V4.5h5.5v22.1ZM117.6,13.7h23.2v3.5h-23.2v-3.5ZM140.1,24v3.6h-21.6v-3.8l18.7-2.2h-18.7v-3.3h21.4v3.8l-17.1,2h17.3ZM118.5,4.5h21.2v8.6h-5.4v-.9h-15.5v-3.3h15.5v-1h-15.8v-3.4ZM143.7,13.5h5.3v-3.9h-5.3v-4.4h10.2v12.6h-4.9v4.3h5.6v4.3h-10.9v-13ZM160.6,17.1v9.5h-4.8V4.5h4.8v7.6h1.7v-7.6h4.9v22.1h-4.9v-9.5h-1.7ZM174.4,5h5.2l-4.6,12.9h-5.5l4.9-12.9ZM170.1,22.2h23.2v4.4h-23.2v-4.4ZM186.5,5l-1.1,3.4h4.2l4,9.6h-5.9l-3-7.7-2.5,7.7h-5.8l4.6-12.9h5.5ZM98.9,4.8c-4.4,0-7.2,2.6-7.2,6.3v9.5c0,3.3,2.5,5.6,5.8,6.1,1.7.2,3.3,0,4.9-.7,2.4-1,3.6-2.8,3.6-5.4v-9.5c0-3.7-2.8-6.3-7.1-6.3ZM101.1,22.7c-1.1,1.1-3,1.1-4.1,0s-1.1-3,0-4.1c.4-.4.9-.7,1.4-.8v-3.9c-1.3-.3-2.3-1.5-2.3-2.8s1.3-2.9,2.9-2.9,2.9,1.3,2.9,2.9-1,2.6-2.3,2.9v3.9c.5.1,1,.4,1.4.8,1.1,1.1,1.1,3,0,4.1Z"/>
        <path class="cls-1" d="M30.6,14.8c-.6,0-1,.5-1,1v7l-12.5,6.8v-11.7l14-7.7c.3-.2.5-.5.5-.9,0-.4-.2-.7-.5-.9L16.5.5c-.3-.2-.7-.2-1,0L1,8.5s0,0,0,0c0,0,0,0,0,0,0,0,0,0,0,0,0,0-.1.1-.2.2,0,0,0,0,0,0,0,0,0,0,0,0,0,0,0,0,0,0,0,0,0,0,0,0,0,0,0,0,0,0,0,0,0,0,0,0,0,0,0,0,0,.1,0,0,0,0,0,0,0,0,0,0,0,.1,0,0,0,0,0,0,0,0,0,0,0,.1,0,0,0,0,0,0v14.2c0,.4.2.7.5.9l9.6,5.4c.5.3,1.1,0,1.4-.4.3-.5,0-1.1-.4-1.4l-9.1-5.1v-11.8l8,4.4c.2,0,.3.1.5.1.4,0,.7-.2.9-.5.3-.5,0-1.1-.4-1.4l-7.9-4.3,12.4-6.7,12.4,6.7-12.9,7.1c-.3.2-.5.5-.5.9v14.1c0,.4.2.7.5.9.2,0,.4.1.5.1s.3,0,.5-.1l14.6-8c.3-.2.5-.5.5-.9v-7.6c0-.6-.5-1-1-1Z"/>
      </g>
    </g>
  </g>
</svg>