<?xml version="1.0" encoding="UTF-8"?>
<svg xmlns="http://www.w3.org/2000/svg" version="1.1" viewBox="0 0 20 20">
  <defs>
    <style>
      .cls-1 {
        fill: none;
        stroke: #818181;
        stroke-linecap: round;
        stroke-linejoin: round;
        stroke-width: 2px;
      }

      .cls-2 {
        fill: #818181;
      }
    </style>
  </defs>
  <!-- Generator: Adobe Illustrator 28.7.1, SVG Export Plug-In . SVG Version: 1.2.0 Build 142)  -->
  <g>
    <g id="Layer_1">
      <g id="Layer_1-2" data-name="Layer_1">
        <path class="cls-2" d="M15.3,2c1.5,0,2.7,1.2,2.7,2.7v10.6c0,1.5-1.2,2.7-2.7,2.7H4.7c-1.5,0-2.7-1.2-2.7-2.7V4.7c0-1.5,1.2-2.7,2.7-2.7h10.6M15.3,0H4.7C2.1,0,0,2.1,0,4.7v10.6c0,2.6,2.1,4.7,4.7,4.7h10.6c2.6,0,4.7-2.1,4.7-4.7V4.7c0-2.6-2.1-4.7-4.7-4.7h0Z"/>
      </g>
      <line class="cls-1" x1="12.9" y1="7.2" x2="7.1" y2="12.8"/>
      <line class="cls-1" x1="7.1" y1="7.2" x2="12.9" y2="12.8"/>
    </g>
  </g>
</svg>