<?xml version="1.0" encoding="UTF-8"?>
<svg xmlns="http://www.w3.org/2000/svg" version="1.1" viewBox="0 0 29 22">
  <defs>
    <style>
      .cls-1 {
        fill: none;
        stroke: #fff;
        stroke-linecap: round;
        stroke-miterlimit: 10;
        stroke-width: 2px;
      }

      .cls-2 {
        fill: #0ad08d;
      }
    </style>
  </defs>
  <!-- Generator: Adobe Illustrator 28.7.1, SVG Export Plug-In . SVG Version: 1.2.0 Build 142)  -->
  <g>
    <g id="Layer_1">
      <g id="Layer_1-2" data-name="Layer_1">
        <g id="Layer_1-2">
          <path class="cls-2" d="M24.3,2c1.5,0,2.7,1.2,2.7,2.7v12.6c0,1.5-1.2,2.7-2.7,2.7H4.7c-1.5,0-2.7-1.2-2.7-2.7V4.7c0-1.5,1.2-2.7,2.7-2.7h19.6M24.3,0H4.7C2.1,0,0,2.1,0,4.7v12.6c0,2.6,2.1,4.7,4.7,4.7h19.6c2.6,0,4.7-2.1,4.7-4.7V4.7c0-2.6-2.1-4.7-4.7-4.7h0Z"/>
        </g>
        <rect class="cls-2" x="3.4" y="3.3" width="22" height="15.4" rx="2.1" ry="2.1"/>
        <line class="cls-1" x1="10.6" y1="7.8" x2="10.6" y2="13.9"/>
        <line class="cls-1" x1="7.5" y1="10.8" x2="13.6" y2="10.8"/>
        <line class="cls-1" x1="16.2" y1="8.8" x2="21.2" y2="8.8"/>
        <line class="cls-1" x1="16.2" y1="12.8" x2="21.2" y2="12.8"/>
      </g>
    </g>
  </g>
</svg>