<?xml version="1.0" encoding="UTF-8"?>
<svg id="Layer_1" xmlns="http://www.w3.org/2000/svg" xmlns:xlink="http://www.w3.org/1999/xlink" viewBox="0 0 203.03 32.47">
  <defs>
    <style>
      .cls-1 {
        fill: #48bd99;
      }

      .cls-2 {
        fill: url(#linear-gradient);
      }
    </style>
    <linearGradient id="linear-gradient" x1="40.08" y1="16.19" x2="203.03" y2="16.19" gradientUnits="userSpaceOnUse">
      <stop offset="0" stop-color="#38bb9b"/>
      <stop offset="1" stop-color="#3dc5ec"/>
    </linearGradient>
  </defs>
  <path class="cls-1" d="M31.92,15.17c-.59,0-1.07.48-1.07,1.07v7.48l-11.96,5.96v-12.33l13.5-6.95c.35-.18.57-.54.58-.94,0-.4-.21-.76-.56-.95L17.1.13c-.32-.18-.71-.17-1.03,0L.55,8.68c-.34.19-.55.55-.55.94v14.74c0,.38.21.74.54.93l10.88,6.18c.51.29,1.17.11,1.46-.4.29-.51.11-1.17-.4-1.46l-10.34-5.87v-12.59l9.47,5.39c.17.09.35.14.53.14.37,0,.73-.19.93-.54.29-.51.11-1.17-.4-1.46L3.53,9.48l13.06-7.2,13.03,7.13-12.29,6.33c-.36.18-.58.55-.58.95v14.71c0,.37.19.71.51.91.17.11.37.16.56.16.16,0,.33-.04.48-.11l14.1-7.03c.36-.18.59-.55.59-.96v-8.14c0-.59-.48-1.07-1.07-1.07Z"/>
  <path class="cls-2" d="M55.51,10.99h-15.43v-4.65h4.85v-2.44h5.72v2.44h4.85v4.65ZM47.87,11.83c-4.21,0-7.26,2.59-7.26,6.28v3.46c0,3.69,3.05,6.28,7.26,6.28s7.26-2.59,7.26-6.28v-3.46c0-3.69-3.05-6.28-7.26-6.28ZM48.39,23.4h-1.16v-7.24h1.16v7.24ZM63.74,27.5v-9.79h2.59v-5.17h-2.59V4.31h-5.72v23.19h5.72ZM78.82,22.67v-3.6c2.91-.84,4.71-2.85,4.71-5.55v-3.28c0-3.46-3.2-5.99-7.96-5.99s-7.99,2.44-7.99,5.99v3.28c0,2.76,1.83,4.77,4.82,5.58v3.57h-5.29v4.59h17.2v-4.59h-5.49ZM71.96,13.78v-1.16l7.15-2.56v1.16l-7.15,2.56ZM85.62,4.31h5.72v8.51h2.59v4.88h-2.59v9.79h-5.72V4.31ZM119.85,27.5h-5.75V4.31h5.75v23.19ZM123.14,13.9h24.41v3.69h-24.41v-3.69ZM146.76,24.71v3.78h-22.69v-4.04l19.67-2.32h-19.67v-3.49h22.49v3.95l-17.99,2.12h18.19ZM124.1,4.31h22.29v9.01h-5.72v-.93h-16.33v-3.46h16.33v-1.08h-16.56v-3.55ZM150.57,13.72h5.55v-4.07h-5.55v-4.59h10.66v13.22h-5.14v4.56h5.9v4.56h-11.42v-13.69ZM168.33,17.47v10.02h-5.09V4.31h5.09v7.99h1.74v-7.99h5.11v23.19h-5.11v-10.02h-1.74ZM182.83,4.83h5.46l-4.79,13.6h-5.81l5.14-13.6ZM178.35,22.82h24.41v4.59h-24.41v-4.59ZM195.56,4.83l-1.19,3.55h4.42l4.24,10.05h-6.19l-3.14-8.05-2.64,8.05h-6.1l4.85-13.6h5.75ZM103.52,4.54c-4.62,0-7.53,2.73-7.53,6.57v10c0,3.49,2.62,5.9,6.13,6.39,1.77.26,3.49.03,5.14-.7,2.5-1.08,3.75-2.96,3.75-5.7v-10c0-3.84-2.91-6.57-7.5-6.57ZM105.86,23.43c-1.2,1.2-3.14,1.2-4.34,0s-1.2-3.14,0-4.34c.42-.42.94-.69,1.48-.81v-4.08c-1.36-.31-2.38-1.53-2.38-2.99,0-1.7,1.38-3.07,3.07-3.07s3.07,1.38,3.07,3.07c0,1.47-1.03,2.7-2.41,3v4.06c.55.12,1.08.39,1.51.82,1.2,1.2,1.2,3.14,0,4.34Z"/>
</svg>