<?xml version="1.0" encoding="UTF-8"?>
<svg id="_레이어_2" data-name="레이어_2" xmlns="http://www.w3.org/2000/svg" viewBox="0 0 142.3 26.2">
  <g id="Layer_1">
    <g>
      <path d="M25.75,12.24c-.48,0-.86.39-.86.86v6.04l-9.65,4.81v-9.95l10.89-5.61c.28-.15.46-.44.47-.76,0-.32-.17-.61-.45-.77L13.8.11c-.26-.14-.57-.14-.83,0L.45,7.01c-.28.15-.45.44-.45.76v11.89c0,.31.17.6.44.75l8.78,4.98c.41.24.94.09,1.18-.32.24-.41.09-.94-.32-1.18L1.72,19.15v-10.16l7.64,4.35c.13.08.28.11.43.11.3,0,.59-.16.75-.44.24-.41.09-.94-.32-1.18L2.85,7.65,13.39,1.85l10.52,5.75-9.92,5.11c-.29.15-.47.44-.47.77v11.87c0,.3.15.58.41.73.14.09.3.13.45.13.13,0,.26-.03.38-.09l11.37-5.67c.29-.15.48-.44.48-.77v-6.57c0-.48-.39-.86-.86-.86Z"/>
      <g>
        <polygon points="51.43 10.11 53.52 10.11 53.52 14.29 51.43 14.29 51.43 22.19 46.81 22.19 46.81 3.48 51.43 3.48 51.43 10.11"/>
        <path d="M63.6,18.3v-2.91c2.34-.68,3.8-2.3,3.8-4.48v-2.65c0-2.79-2.58-4.83-6.42-4.83s-6.45,1.97-6.45,4.83v2.65c0,2.23,1.48,3.85,3.89,4.5v2.88h-4.27v3.71h13.88v-3.71h-4.43ZM58.07,11.12v-.94l5.77-2.06v.94l-5.77,2.06Z"/>
        <polygon points="132.59 14.56 134.74 8.03 137.28 14.56 142.3 14.56 138.86 6.41 135.28 6.41 136.25 3.53 131.58 3.53 127.65 14.56 132.59 14.56"/>
        <polygon points="40.88 3.15 36.26 3.15 36.26 5.12 32.34 5.12 32.34 8.87 44.8 8.87 44.8 5.12 40.88 5.12 40.88 3.15"/>
        <polygon points="130.36 3.53 125.93 3.53 121.76 14.56 126.47 14.56 130.36 3.53"/>
        <polygon points="73.71 3.48 69.09 3.48 69.09 22.19 73.71 22.19 73.71 14.29 75.8 14.29 75.8 10.35 73.71 10.35 73.71 3.48"/>
        <rect x="122.3" y="18.12" width="19.79" height="3.72"/>
        <polygon points="116.01 9.8 114.64 9.8 114.64 3.11 110.52 3.11 110.52 21.91 114.64 21.91 114.64 13.52 116.01 13.52 116.01 21.91 120.15 21.91 120.15 3.11 116.01 3.11 116.01 9.8"/>
        <rect x="92.07" y="3.48" width="4.64" height="18.71"/>
        <path d="M38.63,9.55c-3.4,0-5.86,2.09-5.86,5.07v2.79c0,2.98,2.46,5.06,5.86,5.06s5.86-2.09,5.86-5.06v-2.79c0-2.98-2.46-5.07-5.86-5.07ZM39.05,18.88h-.94v-5.84h.94v5.84Z"/>
        <path d="M99.47,3.72v18.09h9.71V3.72h-9.71ZM104.85,17.13h-.92v-8.06h.92v8.06Z"/>
        <path d="M83.54,3.66c-3.73,0-6.07,2.2-6.07,5.3v8.07c0,2.81,2.11,4.76,4.95,5.16,1.43.21,2.81.02,4.15-.56,2.02-.87,3.02-2.39,3.02-4.6v-8.07c0-3.1-2.35-5.3-6.05-5.3ZM85.38,18.87c-.96.96-2.52.96-3.48,0s-.96-2.52,0-3.48c.35-.35.77-.56,1.21-.66v-3.25c-1.11-.24-1.94-1.23-1.94-2.4,0-1.36,1.1-2.46,2.46-2.46s2.46,1.1,2.46,2.46c0,1.18-.83,2.16-1.94,2.4v3.25c.44.1.87.31,1.21.66.96.96.96,2.52,0,3.48Z"/>
      </g>
    </g>
  </g>
</svg>