<?xml version="1.0" encoding="UTF-8"?>
<svg id="_레이어_2" data-name="레이어_2" xmlns="http://www.w3.org/2000/svg" xmlns:xlink="http://www.w3.org/1999/xlink" viewBox="0 0 142.3 26.2">
  <defs>
    <style>
      .cls-1 {
        fill: #15cfa0;
      }

      .cls-2 {
        fill: url(#linear-gradient);
      }
    </style>
    <linearGradient id="linear-gradient" x1="32.34" y1="12.79" x2="142.3" y2="12.79" gradientUnits="userSpaceOnUse">
      <stop offset="0" stop-color="#09c7a0"/>
      <stop offset="1" stop-color="#3ac5ec"/>
    </linearGradient>
  </defs>
  <g id="Layer_1">
    <g>
      <path class="cls-1" d="M25.75,12.24c-.48,0-.86.39-.86.86v6.04l-9.65,4.81v-9.95l10.89-5.61c.28-.15.46-.44.47-.76,0-.32-.17-.61-.45-.77L13.8.11c-.26-.14-.57-.14-.83,0L.45,7.01c-.28.15-.45.44-.45.76v11.89c0,.31.17.6.44.75l8.78,4.98c.41.24.94.09,1.18-.32.24-.41.09-.94-.32-1.18L1.72,19.15v-10.16l7.64,4.35c.13.08.28.11.43.11.3,0,.59-.16.75-.44.24-.41.09-.94-.32-1.18L2.85,7.65,13.39,1.85l10.52,5.75-9.92,5.11c-.29.15-.47.44-.47.77v11.87c0,.3.15.58.41.73.14.09.3.13.45.13.13,0,.26-.03.38-.09l11.37-5.67c.29-.15.48-.44.48-.77v-6.57c0-.48-.39-.86-.86-.86Z"/>
      <path class="cls-2" d="M51.43,10.11h2.09v4.17h-2.09v7.9h-4.62V3.48h4.62v6.64ZM63.6,18.3v-2.91c2.34-.68,3.8-2.3,3.8-4.48v-2.65c0-2.79-2.58-4.83-6.42-4.83s-6.45,1.97-6.45,4.83v2.65c0,2.23,1.48,3.85,3.89,4.5v2.88h-4.27v3.71h13.88v-3.71h-4.43ZM58.07,11.12v-.94l5.77-2.06v.94l-5.77,2.06ZM132.59,14.56l2.14-6.53,2.54,6.53h5.02l-3.44-8.15h-3.58l.97-2.87h-4.67l-3.93,11.03h4.95ZM40.88,3.15h-4.62v1.97h-3.92v3.75h12.45v-3.75h-3.92v-1.97ZM130.36,3.53h-4.43l-4.17,11.03h4.71l3.89-11.03ZM73.71,3.48h-4.62v18.71h4.62v-7.9h2.09v-3.94h-2.09V3.48ZM122.3,21.84h19.79v-3.72h-19.79v3.72ZM116.01,9.8h-1.37V3.11h-4.12v18.8h4.12v-8.39h1.37v8.39h4.15V3.11h-4.15v6.69ZM92.07,22.19h4.64V3.48h-4.64v18.71ZM38.63,9.55c-3.4,0-5.86,2.09-5.86,5.07v2.79c0,2.98,2.46,5.06,5.86,5.06s5.86-2.09,5.86-5.06v-2.79c0-2.98-2.46-5.07-5.86-5.07ZM39.05,18.88h-.94v-5.84h.94v5.84ZM99.47,3.72v18.09h9.71V3.72h-9.71ZM104.85,17.13h-.92v-8.06h.92v8.06ZM83.54,3.66c-3.73,0-6.07,2.2-6.07,5.3v8.07c0,2.81,2.11,4.76,4.95,5.16,1.43.21,2.81.02,4.15-.56,2.02-.87,3.03-2.39,3.03-4.6v-8.07c0-3.1-2.35-5.3-6.05-5.3ZM85.38,15.39c.96.96.96,2.52,0,3.48-.96.96-2.52.96-3.48,0s-.96-2.52,0-3.48c.35-.35.77-.56,1.21-.66v-3.25c-1.11-.24-1.94-1.23-1.94-2.4,0-1.36,1.1-2.46,2.46-2.46s2.46,1.1,2.46,2.46c0,1.18-.83,2.15-1.94,2.4v3.27c.44.1.87.31,1.21.65Z"/>
    </g>
  </g>
</svg>