<?xml version="1.0" encoding="UTF-8"?>
<svg xmlns="http://www.w3.org/2000/svg" version="1.1" viewBox="0 0 30 30">
  <defs>
    <style>
      .cls-1 {
        fill: #bbb;
      }

      .cls-2, .cls-3 {
        fill: #ebebeb;
      }

      .cls-3 {
        stroke: #bbb;
        stroke-linecap: round;
        stroke-linejoin: round;
        stroke-width: 3px;
      }
    </style>
  </defs>
  <!-- Generator: Adobe Illustrator 28.7.1, SVG Export Plug-In . SVG Version: 1.2.0 Build 142)  -->
  <g>
    <g id="Layer_1">
      <g>
        <path class="cls-2" d="M15,29.1C7.2,29.1.9,22.8.9,14.9S7.2.7,15,.7s14.2,6.4,14.2,14.2-6.4,14.2-14.2,14.2Z"/>
        <path class="cls-1" d="M15,1.2c7.6,0,13.7,6.1,13.7,13.7s-6.1,13.7-13.7,13.7S1.4,22.5,1.4,14.9,7.5,1.2,15,1.2M15,.2C6.9.2.4,6.8.4,14.9s6.6,14.7,14.7,14.7,14.7-6.6,14.7-14.7S23.2.2,15,.2h0Z"/>
      </g>
      <polyline class="cls-3" points="9.3 14.6 13.9 19 20.8 10.9"/>
    </g>
  </g>
</svg>