<?xml version="1.0" encoding="UTF-8"?>
<svg xmlns="http://www.w3.org/2000/svg" version="1.1" viewBox="0 0 142.3 26.2">
  <defs>
    <style>
      .cls-1 {
        fill: #333;
      }
    </style>
  </defs>
  <!-- Generator: Adobe Illustrator 28.7.1, SVG Export Plug-In . SVG Version: 1.2.0 Build 142)  -->
  <g>
    <g id="_레이어_2">
      <g id="Layer_1">
        <g>
          <path class="cls-1" d="M25.8,12.2c-.5,0-.9.4-.9.9v6l-9.6,4.8v-9.9l10.9-5.6c.3-.1.5-.4.5-.8,0-.3-.2-.6-.5-.8L13.8.1c-.3-.1-.6-.1-.8,0L.4,7c-.3.2-.4.4-.4.8v11.9c0,.3.2.6.4.8l8.8,5c.4.2.9,0,1.2-.3.2-.4,0-.9-.3-1.2L1.7,19.1v-10.2l7.6,4.4c.1,0,.3.1.4.1.3,0,.6-.2.8-.4.2-.4,0-.9-.3-1.2L2.8,7.7,13.4,1.9l10.5,5.7-9.9,5.1c-.3.1-.5.4-.5.8v11.9c0,.3.1.6.4.7.1,0,.3.1.4.1s.3,0,.4,0l11.4-5.7c.3-.1.5-.4.5-.8v-6.6c0-.5-.4-.9-.9-.9h0Z"/>
          <g>
            <polygon class="cls-1" points="51.4 10.1 53.5 10.1 53.5 14.3 51.4 14.3 51.4 22.2 46.8 22.2 46.8 3.5 51.4 3.5 51.4 10.1"/>
            <path class="cls-1" d="M63.6,18.3v-2.9c2.3-.7,3.8-2.3,3.8-4.5v-2.6c0-2.8-2.6-4.8-6.4-4.8s-6.5,2-6.5,4.8v2.6c0,2.2,1.5,3.9,3.9,4.5v2.9h-4.3v3.7h13.9v-3.7h-4.4ZM58.1,11.1v-.9l5.8-2.1v.9s-5.8,2.1-5.8,2.1Z"/>
            <polygon class="cls-1" points="132.6 14.6 134.7 8 137.3 14.6 142.3 14.6 138.9 6.4 135.3 6.4 136.2 3.5 131.6 3.5 127.7 14.6 132.6 14.6"/>
            <polygon class="cls-1" points="40.9 3.2 36.3 3.2 36.3 5.1 32.3 5.1 32.3 8.9 44.8 8.9 44.8 5.1 40.9 5.1 40.9 3.2"/>
            <polygon class="cls-1" points="130.4 3.5 125.9 3.5 121.8 14.6 126.5 14.6 130.4 3.5"/>
            <polygon class="cls-1" points="73.7 3.5 69.1 3.5 69.1 22.2 73.7 22.2 73.7 14.3 75.8 14.3 75.8 10.4 73.7 10.4 73.7 3.5"/>
            <rect class="cls-1" x="122.3" y="18.1" width="19.8" height="3.7"/>
            <polygon class="cls-1" points="116 9.8 114.6 9.8 114.6 3.1 110.5 3.1 110.5 21.9 114.6 21.9 114.6 13.5 116 13.5 116 21.9 120.2 21.9 120.2 3.1 116 3.1 116 9.8"/>
            <rect class="cls-1" x="92.1" y="3.5" width="4.6" height="18.7"/>
            <path class="cls-1" d="M38.6,9.6c-3.4,0-5.9,2.1-5.9,5.1v2.8c0,3,2.5,5.1,5.9,5.1s5.9-2.1,5.9-5.1v-2.8c0-3-2.5-5.1-5.9-5.1ZM39,18.9h-.9v-5.8h.9v5.8Z"/>
            <path class="cls-1" d="M99.5,3.7v18.1h9.7V3.7h-9.7ZM104.8,17.1h-.9v-8.1h.9v8.1Z"/>
            <path class="cls-1" d="M83.5,3.7c-3.7,0-6.1,2.2-6.1,5.3v8.1c0,2.8,2.1,4.8,4.9,5.2,1.4.2,2.8,0,4.2-.6,2-.9,3-2.4,3-4.6v-8.1c0-3.1-2.3-5.3-6-5.3ZM85.4,18.9c-1,1-2.5,1-3.5,0s-1-2.5,0-3.5c.3-.4.8-.6,1.2-.7v-3.2c-1.1-.2-1.9-1.2-1.9-2.4s1.1-2.5,2.5-2.5,2.5,1.1,2.5,2.5-.8,2.2-1.9,2.4v3.2c.4.1.9.3,1.2.7,1,1,1,2.5,0,3.5h0Z"/>
          </g>
        </g>
      </g>
    </g>
  </g>
</svg>