<?xml version="1.0" encoding="UTF-8"?>
<svg id="_레이어_2" data-name="레이어_2" xmlns="http://www.w3.org/2000/svg" xmlns:xlink="http://www.w3.org/1999/xlink" viewBox="0 0 412.63 75.98">
  <defs>
    <style>
      .cls-1 {
        fill: url(#linear-gradient-2);
      }

      .cls-2, .cls-3 {
        fill: #fff;
      }

      .cls-3 {
        opacity: .5;
      }

      .cls-4 {
        fill: #15cfa0;
      }

      .cls-5 {
        fill: url(#linear-gradient);
      }
    </style>
    <linearGradient id="linear-gradient" x1="93.79" y1="37.09" x2="412.63" y2="37.09" gradientUnits="userSpaceOnUse">
      <stop offset="0" stop-color="#09c7a0"/>
      <stop offset="1" stop-color="#3ac5ec"/>
    </linearGradient>
    <linearGradient id="linear-gradient-2" x1="241.01" y1="37.04" x2="244.07" y2="37.04" xlink:href="#linear-gradient"/>
  </defs>
  <g id="Layer_1">
    <g>
      <path class="cls-5" d="M149.13,29.32h6.05v12.1h-6.05v22.91h-13.39V10.08h13.39v19.24ZM197.28,53.05v10.74h-40.25v-10.74h12.37v-8.36c-7-1.9-11.29-6.59-11.29-13.05v-7.68c0-8.3,7.62-14.01,18.7-14.01s18.63,5.92,18.63,14.01v7.68c0,6.32-4.22,11.01-11.02,12.99v8.43h12.85ZM185.11,26.26v-2.72l-16.73,5.98v2.72l16.73-5.98ZM384.48,42.22l6.22-18.92,7.38,18.92h14.55l-9.97-23.64h-10.38l2.8-8.33h-13.53l-11.41,31.97h14.35ZM118.54,9.13h-13.4v5.71h-11.35v10.88h36.1v-10.88h-11.35v-5.71ZM377.99,10.25h-12.84l-12.09,31.97h13.66l11.27-31.97ZM213.73,10.08h-13.39v54.26h13.39v-22.91h6.05v-11.42h-6.05V10.08ZM242.23,10.62c-10.81,0-17.61,6.39-17.61,15.37v23.39c0,8.16,6.12,13.8,14.35,14.96,4.15.61,8.16.07,12.03-1.63,5.85-2.52,8.77-6.94,8.77-13.33v-23.39c0-8.97-6.8-15.37-17.54-15.37ZM354.63,63.33h57.39v-10.79h-57.39v10.79ZM336.38,28.42h-3.96V9.02h-11.96v54.52h11.96v-24.32h3.96v24.32h12.02V9.02h-12.02v19.4ZM266.98,64.34h13.46V10.08h-13.46v54.26ZM129.01,42.38v8.09c0,8.64-7.14,14.69-17,14.69s-17-6.05-17-14.69v-8.09c0-8.63,7.14-14.69,17-14.69s17,6.05,17,14.69ZM113.23,37.82h-2.72v16.93h2.72v-16.93ZM316.57,10.79v52.47h-28.15V10.79h28.15ZM304.02,26.31h-2.67v23.37h2.67v-23.37Z"/>
      <path class="cls-4" d="M74.68,35.49c-1.38,0-2.5,1.12-2.5,2.5v17.5l-27.98,13.95v-28.85l31.59-16.27c.82-.42,1.34-1.27,1.36-2.19.01-.93-.49-1.78-1.3-2.22L40.01.31c-.75-.41-1.66-.41-2.41,0L1.29,20.32c-.8.44-1.29,1.28-1.29,2.19v34.48c0,.9.48,1.73,1.27,2.17l25.45,14.45c1.2.68,2.73.26,3.41-.94.68-1.2.26-2.73-.94-3.41l-24.18-13.74v-29.45l22.17,12.62c.39.22.81.33,1.23.33.87,0,1.71-.45,2.17-1.26.68-1.2.26-2.73-.94-3.41l-21.38-12.17L38.81,5.35l30.49,16.68-28.76,14.81c-.83.43-1.36,1.29-1.36,2.22v34.42c0,.87.45,1.67,1.18,2.13.4.25.86.37,1.32.37.38,0,.76-.09,1.12-.26l32.98-16.44c.85-.42,1.38-1.29,1.38-2.24v-19.05c0-1.38-1.12-2.5-2.5-2.5Z"/>
      <rect class="cls-1" x="241.01" y="23.27" width="3.06" height="27.54"/>
      <g>
        <circle class="cls-3" cx="242.54" cy="26.25" r="8.33"/>
        <circle class="cls-2" cx="242.54" cy="26.25" r="4.21"/>
        <circle class="cls-3" cx="242.54" cy="49.45" r="8.33"/>
        <circle class="cls-2" cx="242.54" cy="49.45" r="4.21"/>
        <rect class="cls-2" x="241.01" y="24.43" width="3.06" height="26.82"/>
      </g>
    </g>
  </g>
</svg>