<?xml version="1.0" encoding="UTF-8"?>
<svg xmlns="http://www.w3.org/2000/svg" version="1.1" viewBox="0 0 20 20">
  <defs>
    <style>
      .cls-1 {
        fill: #232323;
      }
    </style>
  </defs>
  <!-- Generator: Adobe Illustrator 28.7.1, SVG Export Plug-In . SVG Version: 1.2.0 Build 142)  -->
  <g>
    <g id="Layer_1">
      <g id="Layer_1-2">
        <path class="cls-1" d="M9.9,18.3h-4.6c-1.8,0-3.2-1.4-3.2-3.2V5.4c0-1.8,1.4-3.2,3.2-3.2h4.6c1.8,0,3.2,1.4,3.2,3.2v.7c0,.6-.4,1-1,1s-1-.4-1-1v-.7c0-.7-.5-1.2-1.2-1.2h-4.6c-.7,0-1.2.5-1.2,1.2v9.7c0,.7.5,1.2,1.2,1.2h4.6c.7,0,1.2-.5,1.2-1.2v-1.6c0-.6.4-1,1-1s1,.4,1,1v1.6c0,1.8-1.4,3.2-3.2,3.2Z"/>
      </g>
      <path class="cls-1" d="M8.5,13.4h-1.8c-.2,0-.3-.2-.2-.3l.8-1.6c0,0,.1-.2.2-.2l8-4.9c.6-.3,1.3-.2,1.6.4h0c.3.6.2,1.3-.4,1.6l-8,4.9c0,0-.2,0-.3,0Z"/>
    </g>
  </g>
</svg>