<?xml version="1.0" encoding="UTF-8"?>
<svg xmlns="http://www.w3.org/2000/svg" version="1.1" viewBox="0 0 17 16">
  <defs>
    <style>
      .cls-1 {
        fill: #0485fd;
      }
    </style>
  </defs>
  <!-- Generator: Adobe Illustrator 28.7.1, SVG Export Plug-In . SVG Version: 1.2.0 Build 142)  -->
  <g>
    <g id="Layer_1">
      <g>
        <path class="cls-1" d="M3.4,15.1v-.8c0-2.2.8-4.3,2.2-5.4h-.4C2,9,0,11.3,0,14.4v.8C0,15.6.4,16,.9,16h2.7c-.1-.3-.2-.6-.2-.9Z"/>
        <path class="cls-1" d="M6,8c.3,0,.6,0,.9,0-1.1-1-1.7-2.4-1.7-3.9S5.9,1.1,6.9,0C6.6,0,6.4,0,6,0,3.7,0,1.8,1.8,1.8,4s1.9,4,4.2,4Z"/>
      </g>
      <g id="Layer_1-2" data-name="Layer_1">
        <g id="Layer_1-2">
          <g id="Layer_1-2-2" data-name="Layer_1-2">
            <g id="Layer_1-2-2">
              <ellipse class="cls-1" cx="11" cy="4" rx="4.2" ry="4"/>
              <path class="cls-1" d="M16.1,16c.5,0,.9-.4.9-.9v-.8c0-3-2-5.4-5.3-5.4h-1.6c-3.2,0-5.3,2.3-5.3,5.4v.8c0,.5.4.9.9.9h10.4Z"/>
            </g>
          </g>
        </g>
      </g>
    </g>
  </g>
</svg>