<?xml version="1.0" encoding="UTF-8"?>
<svg xmlns="http://www.w3.org/2000/svg" version="1.1" viewBox="0 0 15 20">
  <defs>
    <style>
      .cls-1 {
        fill: #26c2ce;
      }
    </style>
  </defs>
  <!-- Generator: Adobe Illustrator 28.7.1, SVG Export Plug-In . SVG Version: 1.2.0 Build 142)  -->
  <g>
    <g id="Layer_1">
      <g id="Layer_1-2" data-name="Layer_1">
        <g id="Layer_1-2">
          <path class="cls-1" d="M7.6,10.2c-2.7,0-5-2.1-5-4.7S4.9.7,7.6.7s5,2.1,5,4.7-2.2,4.7-5,4.7ZM7.6,3c-1.5,0-2.7,1.1-2.7,2.5s1.2,2.5,2.7,2.5,2.7-1.1,2.7-2.5-1.2-2.5-2.7-2.5Z"/>
          <path class="cls-1" d="M13.6,19.3c-.6,0-1.1-.5-1.1-1.1v-1.5c0-2.6-2.9-2.9-4.2-2.9h-1.4c-1.3,0-4.2.3-4.2,2.9v1.5c0,.6-.5,1.1-1.1,1.1s-1.1-.5-1.1-1.1v-1.5c0-3.2,2.5-5.2,6.4-5.2h1.4c3.9,0,6.4,2,6.4,5.2v1.5c0,.6-.5,1.1-1.1,1.1Z"/>
        </g>
      </g>
    </g>
  </g>
</svg>