<?xml version="1.0" encoding="UTF-8"?>
<svg xmlns="http://www.w3.org/2000/svg" version="1.1" viewBox="0 0 15 16">
  <defs>
    <style>
      .cls-1 {
        fill: #0acfbd;
      }

      .cls-2, .cls-3, .cls-4 {
        fill: #fff;
      }

      .cls-2, .cls-4 {
        stroke: #0acfbd;
        stroke-miterlimit: 10;
      }

      .cls-4 {
        stroke-width: 2px;
      }
    </style>
  </defs>
  <!-- Generator: Adobe Illustrator 28.7.1, SVG Export Plug-In . SVG Version: 1.2.0 Build 142)  -->
  <g>
    <g id="Layer_1">
      <rect class="cls-4" x="1.1" y="1.1" width="12" height="13.9" rx="2.1" ry="2.1"/>
      <g>
        <path class="cls-3" d="M5.1,10.9c0,0-.2,0-.2-.2v-2.9s0,0,0-.1L11.3,1.3s0,0,.1,0,0,0,.1,0l2.9,2.9s0,0,0,.1,0,0,0,.1l-6.4,6.4s0,0-.1,0h-2.8Z"/>
        <path class="cls-1" d="M11.4,1.9l2.5,2.4-6.1,6.1h-2.4v-2.5L11.4,1.9M11.4.7c-.2,0-.3,0-.5.2l-6.3,6.3c-.1.1-.2.3-.2.5v2.9c0,.4.3.7.7.7h2.8c.2,0,.4,0,.5-.2l6.4-6.4c.3-.3.3-.7,0-1l-2.9-2.9c-.1-.1-.3-.2-.5-.2h0Z"/>
      </g>
      <line class="cls-2" x1="8.6" y1="10.2" x2="5.6" y2="7.1"/>
    </g>
  </g>
</svg>