<?xml version="1.0" encoding="UTF-8"?>
<svg xmlns="http://www.w3.org/2000/svg" version="1.1" viewBox="0 0 20 16">
  <defs>
    <style>
      .cls-1 {
        fill: #0485fd;
      }
    </style>
  </defs>
  <!-- Generator: Adobe Illustrator 28.7.1, SVG Export Plug-In . SVG Version: 1.2.0 Build 142)  -->
  <g>
    <g id="Layer_1">
      <g id="Layer_1-2" data-name="Layer_1">
        <path class="cls-1" d="M15.4,12.3c-.6,0-1-.4-1-1v-6.5c0-.6.4-1,1-1s1,.4,1,1v6.5c0,.6-.4,1-1,1Z"/>
        <path class="cls-1" d="M18.7,8.9h-6.5c-.6,0-1-.4-1-1s.4-1,1-1h6.5c.6,0,1,.4,1,1s-.4,1-1,1Z"/>
      </g>
      <g id="Layer_1-3" data-name="Layer_1">
        <g id="Layer_1-2">
          <g id="Layer_1-2-2" data-name="Layer_1-2">
            <g id="Layer_1-2-2">
              <ellipse class="cls-1" cx="6" cy="4" rx="4.2" ry="4"/>
              <path class="cls-1" d="M11.2,16c.5,0,.9-.4.9-.9v-.8c0-3-2-5.4-5.3-5.4h-1.6C2,9,0,11.3,0,14.4v.8C0,15.6.4,16,.9,16h10.4Z"/>
            </g>
          </g>
        </g>
      </g>
    </g>
  </g>
</svg>